<!-- icon666.com - MILLIONS vector ICONS FREE --><svg fill="none" viewBox="0 0 21 21" xmlns="http://www.w3.org/2000/svg"><path clip-rule="evenodd" d="m4.99411 2.45529c1.64449-1.09881 3.57788-1.685301 5.55569-1.685301 2.6511.00343 5.1927 1.058101 7.0673 2.932721s2.9293 4.41617 2.9327 7.06729c0 1.9778-.5865 3.9112-1.6853 5.5557s-2.6606 2.9262-4.4879 3.6831c-1.8272.7569-3.8379.9549-5.77768.569-1.93981-.3858-3.72165-1.3382-5.12018-2.7367-1.39852-1.3986-2.35093-3.1804-2.736783-5.1202-.385852-1.9398-.187821-3.95048.569053-5.77774.75688-1.82727 2.03861-3.38905 3.6831-4.48787zm1.01114 15.11591c1.34508.8992 2.92659 1.3794 4.54455 1.3798 2.1694-.0017 4.2495-.8641 5.7837-2.3979 1.5343-1.5338 2.3972-3.6137 2.3995-5.7831 0-1.61797-.4797-3.1996-1.3786-4.54492-.8988-1.34532-2.1764-2.3939-3.6712-3.01317s-3.1396-.7814-4.72648-.46591c-1.58691.31549-3.04462 1.09444-4.18884 2.23836-1.14423 1.14392-1.92358 2.60144-2.23949 4.18827-.31591 1.58677-.15419 3.23167.46468 4.72657.61887 1.495 1.6671 2.7728 3.01218 3.672zm8.78025-11.53432c.1112.0466.2121.11486.2967.20081.1703.17053.266.40169.266.64269 0 .24101-.0957.47216-.266.64269l-3.2404 3.24043 3.2404 3.2405c.1703.1705.266.4016.266.6426s-.0957.4722-.266.6427c-.0843.0865-.1851.1553-.2964.2022s-.2309.0711-.3517.0711c-.1207 0-.2403-.0242-.3516-.0711s-.2121-.1157-.2964-.2022l-3.2405-3.2404-3.24042 3.2404c-.08433.0865-.1851.1553-.29641.2022-.1113.0469-.23089.0711-.35168.0711s-.24035-.0242-.35165-.0711c-.11131-.0469-.21211-.1157-.29644-.2022-.08484-.0841-.15216-.1842-.19812-.2945s-.06965-.2287-.06965-.3482.02369-.2378.06965-.3481.11328-.2104.19812-.2945l3.24044-3.2405-3.24044-3.24043c-.0844-.08511-.15119-.18601-.19659-.29693-.04541-.11093-.06851-.22972-.06801-.34957.0005-.11986.0246-.23845.07094-.349.04633-.11054.11396-.21088.19907-.29528.08511-.08439.18601-.1512.29693-.19661.11093-.0454.22971-.06851.34957-.06801s.23845.02461.34899.07094c.11055.04633.21088.11398.29528.19908l3.24042 3.24044 3.2405-3.24044c.0846-.08595.1855-.15421.2967-.20081.1113-.04659.2307-.07059.3513-.07059.1207 0 .2401.024.3514.07059z" fill="rgb(0,0,0)" fill-rule="evenodd"></path></svg>