<!-- icon666.com - MILLIONS vector ICONS FREE --><svg viewBox="0 0 64 64" xmlns="http://www.w3.org/2000/svg"><g id="_40-Coding" data-name="40-Coding"><circle cx="59" cy="21" fill="#73c6b2" r="3"></circle><circle cx="4" cy="38" fill="#ffc247" r="3"></circle><path d="m47 1v22h-26l-5 5v-5h-15v-22z" fill="#f5f5fc"></path><path d="m63 34v24h-20l-5 5v-5h-23v-24z" fill="#f5f5fc"></path><path d="m2.195 13c7.6 0 7.6-2 15.2-2s7.6 2 15.2 2c7.318 0 7.611-1.849 14.405-1.987v-7c-6.794.138-7.087 1.987-14.4 1.987-7.6 0-7.6-2-15.206-2s-7.6 2-15.2 2c-.426 0-.813-.01-1.194-.022v7c.381.012.768.022 1.195.022z" fill="#dfe1ea"></path><path d="m17.394 4c7.606 0 7.606 2 15.206 2 7.313 0 7.606-1.849 14.4-1.987v-3.013h-46v4.978c.381.012.768.022 1.195.022 7.599 0 7.599-2 15.199-2z" fill="#adb2c7"></path><path d="m19.2 46c7.6 0 7.6-2 15.2-2s7.6 2 15.2 2c6.942 0 7.561-1.664 13.405-1.953v-7c-5.849.289-6.468 1.953-13.405 1.953-7.6 0-7.6-2-15.2-2s-7.6 2-15.2 2a28.99 28.99 0 0 1 -4.2-.27v7a28.99 28.99 0 0 0 4.2.27z" fill="#dfe1ea"></path><path d="m34.394 37c7.6 0 7.6 2 15.2 2 6.942 0 7.561-1.664 13.405-1.953v-3.047h-47.999v4.73a28.99 28.99 0 0 0 4.2.27c7.594 0 7.594-2 15.194-2z" fill="#adb2c7"></path><path d="m12 11h-4v-6h-2v14h2v-6h4v6h2v-14h-2z"></path><path d="m19 19h2v-12h3v-2h-8v2h3z"></path><path d="m28 11.515 1.063 2.836a1 1 0 0 0 1.874 0l1.063-2.836v7.485h2v-13a1 1 0 0 0 -1.937-.351l-2.063 5.503-2.063-5.5a1 1 0 0 0 -1.937.348v13h2z"></path><path d="m39 19h4v-2h-4a.915.915 0 0 1 -1-1v-11h-2v11a2.916 2.916 0 0 0 3 3z"></path><path d="m1 24h14v4a1 1 0 0 0 1.707.707l4.707-4.707h25.586a1 1 0 0 0 1-1v-22a1 1 0 0 0 -1-1h-46a1 1 0 0 0 -1 1v22a1 1 0 0 0 1 1zm1-22h44v20h-25a1 1 0 0 0 -.707.293l-3.293 3.293v-2.586a1 1 0 0 0 -1-1h-14z"></path><path d="m63 33h-48a1 1 0 0 0 -1 1v24a1 1 0 0 0 1 1h22v4a1 1 0 0 0 1.707.707l4.707-4.707h19.586a1 1 0 0 0 1-1v-24a1 1 0 0 0 -1-1zm-1 24h-19a1 1 0 0 0 -.707.293l-3.293 3.293v-2.586a1 1 0 0 0 -1-1h-22v-22h46z"></path><path d="m51 53a3 3 0 0 1 -3-3h-2a5 5 0 1 0 5-5 3 3 0 1 1 3-3h2a5 5 0 1 0 -5 5 3 3 0 0 1 0 6z"></path><path d="m39 53a3 3 0 0 1 -3-3h-2a5 5 0 1 0 5-5 3 3 0 1 1 3-3h2a5 5 0 1 0 -5 5 3 3 0 0 1 0 6z"></path><path d="m27 55a5.006 5.006 0 0 0 5-5h-2a3 3 0 0 1 -6 0v-8a3 3 0 0 1 6 0h2a5 5 0 0 0 -10 0v8a5.006 5.006 0 0 0 5 5z"></path><path d="m58 16v1.142a3.981 3.981 0 0 0 0 7.716v.142a2.853 2.853 0 0 1 -3 3h-33v2h33a4.821 4.821 0 0 0 5-5v-.142a3.981 3.981 0 0 0 0-7.716v-1.142a4.821 4.821 0 0 0 -5-5h-5v2h4.994a2.854 2.854 0 0 1 3.006 3zm3 5a2 2 0 1 1 -2-2 2 2 0 0 1 2 2z"></path><path d="m3 34v.142a3.981 3.981 0 0 0 0 7.716v.142a5.785 5.785 0 0 0 6 6h3v-2h-3a3.85 3.85 0 0 1 -4-4v-.142a3.981 3.981 0 0 0 0-7.716v-.142a3.85 3.85 0 0 1 4-4h3v-2h-3a5.785 5.785 0 0 0 -6 6zm3 4a2 2 0 1 1 -2-2 2 2 0 0 1 2 2z"></path></g></svg>