<!-- icon666.com - MILLIONS vector ICONS FREE --><svg version="1.1" id="Capa_1" xmlns="http://www.w3.org/2000/svg" xmlns:xlink="http://www.w3.org/1999/xlink" x="0px" y="0px" viewBox="0 0 490.667 490.667" style="enable-background:new 0 0 490.667 490.667;" xml:space="preserve"><linearGradient id="SVGID_1_" gradientUnits="userSpaceOnUse" x1="-60.5965" y1="612.2982" x2="-55.9764" y2="607.6771" gradientTransform="matrix(21.3333 0 0 -21.3333 1430.1112 13315.2227)"><stop offset="0" style="stop-color:#369CDC"></stop><stop offset="1" style="stop-color:#AA56D0"></stop></linearGradient><path style="fill:url(#SVGID_1_);" d="M224,234.667h-64c-5.888,0-10.667,4.779-10.667,10.667S154.112,256,160,256h53.333v74.667 c0,17.643-14.357,32-32,32s-32-14.357-32-32c0-5.888-4.779-10.667-10.667-10.667S128,324.779,128,330.667 C128,360.085,151.936,384,181.333,384s53.333-23.915,53.333-53.333v-85.333C234.667,239.445,229.888,234.667,224,234.667z"></path><linearGradient id="SVGID_2_" gradientUnits="userSpaceOnUse" x1="-55.0273" y1="612.1419" x2="-50.0456" y2="607.1602" gradientTransform="matrix(21.3333 0 0 -21.3333 1430.1112 13315.2227)"><stop offset="0" style="stop-color:#369CDC"></stop><stop offset="1" style="stop-color:#AA56D0"></stop></linearGradient><path style="fill:url(#SVGID_2_);" d="M293.035,256h37.632c5.888,0,10.667,4.8,10.667,10.667c0,5.888,4.779,10.667,10.667,10.667 c5.888,0,10.667-4.779,10.667-10.667c0-17.643-14.357-32-32-32h-37.632c-20.416,0-37.035,16.619-37.035,37.035 c0,14.101,7.829,26.795,20.459,33.131l56.171,28.075c5.376,2.688,8.704,8.064,8.704,14.059c0,8.661-7.04,15.701-15.701,15.701H288 c-5.888,0-10.667-4.8-10.667-10.667c0-5.888-4.779-10.667-10.667-10.667S256,346.112,256,352c0,17.643,14.357,32,32,32h37.632 c20.416,0,37.035-16.619,37.035-37.035c0-14.101-7.829-26.795-20.48-33.131l-56.171-28.075c-5.355-2.688-8.683-8.064-8.683-14.059 C277.333,263.04,284.373,256,293.035,256z"></path><linearGradient id="SVGID_3_" gradientUnits="userSpaceOnUse" x1="-62.8905" y1="620.0051" x2="-45.683" y2="602.7975" gradientTransform="matrix(21.3333 0 0 -21.3333 1430.1112 13315.2227)"><stop offset="0" style="stop-color:#369CDC"></stop><stop offset="1" style="stop-color:#AA56D0"></stop></linearGradient><path style="fill:url(#SVGID_3_);" d="M458.667,192h-32V10.667C426.667,4.779,421.888,0,416,0H181.333 c-0.469,0-0.917,0.213-1.365,0.277c-0.491,0.064-0.896,0.149-1.344,0.256c-1.792,0.491-3.499,1.259-4.843,2.581L67.115,109.781 c-1.323,1.344-2.091,3.051-2.581,4.843c-0.128,0.469-0.213,0.875-0.256,1.344c-0.064,0.448-0.277,0.896-0.277,1.365V192H32 c-5.888,0-10.667,4.779-10.667,10.667V416c0,5.888,4.779,10.667,10.667,10.667h32V480c0,5.888,4.779,10.667,10.667,10.667H416 c5.888,0,10.667-4.779,10.667-10.667v-53.333h32c5.888,0,10.667-4.779,10.667-10.667V202.667 C469.333,196.779,464.555,192,458.667,192z M170.667,36.416v70.251h-70.251L170.667,36.416z M85.333,128h96 c5.888,0,10.667-4.779,10.667-10.667v-96h213.333V192h-320V128z M405.333,469.333h-320v-42.667h320V469.333z M448,405.333H42.667 v-192H448V405.333z"></path></svg>