<?xml version="1.0" standalone="no"?>
<!DOCTYPE svg PUBLIC "-//W3C//DTD SVG 20010904//EN"
 "http://www.w3.org/TR/2001/REC-SVG-20010904/DTD/svg10.dtd">
<svg version="1.0" xmlns="http://www.w3.org/2000/svg"
 width="32.000000pt" height="32.000000pt" viewBox="0 0 32.000000 32.000000"
 preserveAspectRatio="xMidYMid meet">

<g transform="translate(0.000000,32.000000) scale(0.100000,-0.100000)"
fill="#000000" stroke="none">
<path d="M30 250 c0 -5 5 -10 10 -10 6 0 10 5 10 10 0 6 -4 10 -10 10 -5 0
-10 -4 -10 -10z"/>
<path d="M63 246 c2 -6 12 -11 22 -11 10 0 20 5 22 11 2 7 -7 12 -22 12 -15 0
-24 -5 -22 -12z"/>
<path d="M190 251 c0 -5 11 -8 25 -7 33 1 33 16 0 16 -14 0 -25 -4 -25 -9z"/>
<path d="M250 250 c0 -5 12 -10 26 -10 14 0 23 4 19 10 -3 6 -15 10 -26 10
-10 0 -19 -4 -19 -10z"/>
<path d="M7 153 c3 -38 10 -72 15 -78 10 -11 92 -14 103 -4 3 4 9 39 12 78 l6
71 -70 0 -71 0 5 -67z m111 13 c2 -16 1 -39 -3 -53 -5 -21 -11 -24 -43 -21
-34 3 -37 6 -39 36 -1 30 1 32 35 34 l37 1 -37 4 c-44 5 -50 20 -10 26 47 7
57 3 60 -27z"/>
<path d="M55 120 c3 -5 13 -10 21 -10 8 0 14 5 14 10 0 6 -9 10 -21 10 -11 0
-17 -4 -14 -10z"/>
<path d="M180 191 c0 -15 3 -49 6 -74 6 -40 10 -46 36 -51 43 -9 77 3 83 28 2
11 6 45 8 74 l4 52 -68 0 -69 0 0 -29z m120 -6 c0 -11 -12 -15 -42 -17 l-43
-1 38 -4 c35 -4 37 -6 37 -39 0 -35 -7 -40 -55 -35 -26 2 -31 14 -33 66 l-2
45 50 0 c38 0 50 -4 50 -15z"/>
<path d="M230 120 c0 -5 4 -10 9 -10 6 0 13 5 16 10 3 6 -1 10 -9 10 -9 0 -16
-4 -16 -10z"/>
</g>
</svg>
